<svg width="210" height="45" viewBox="0 0 210 45" fill="none" xmlns="http://www.w3.org/2000/svg">
<path d="M2 6.14463C13.7565 15.5613 23.0424 19.5475 38.1249 18.8782C51.7452 18.2738 66.5611 11.815 79.229 7.10854C94.913 1.28148 125.7 -3.27271 134.814 15.2763C141.89 29.679 131.284 46.9018 114.592 42.2145C108.157 40.4075 104.831 31.8299 107.682 25.8791C110.76 19.4517 119.964 16.3532 126.329 14.8704C143.422 10.888 154.81 26.8759 170.278 29.6839C184.729 32.3073 195.46 25.8439 206.403 17.1026C207.34 16.3539 206.86 21.3356 206.86 22.5816C206.86 27.1492 207.775 25.122 207.775 21.6684C207.775 19.4473 208.946 14.7248 205.946 15.9865C203.78 16.8967 199.23 17.1026 196.8 17.1026" stroke="#AAC1E4" stroke-width="3" stroke-linecap="round" stroke-dasharray="12 12"/>
</svg>
