<svg width="80" height="80" viewBox="0 0 80 80" fill="none" xmlns="http://www.w3.org/2000/svg">
<rect width="80" height="80" rx="12" fill="#F2F4FA"/>
<path d="M22.2402 48.3782C24.4066 52.3357 27.9693 55.4034 32.2759 57.0194C36.5825 58.6354 41.3447 58.6917 45.6906 57.1779C50.0364 55.6641 53.675 52.6816 55.9401 48.7764C58.2051 44.8713 58.9451 40.3049 58.0244 35.9135C58.5647 35.4581 58.9915 34.8897 59.2729 34.2512C59.5543 33.6126 59.6829 32.9205 59.649 32.2268C59.5812 30.9674 58.9668 29.8466 58.046 29.3016C57.3895 28.9048 56.6291 28.6999 55.8558 28.7115C56.1224 27.4156 56.1418 25.5155 54.4122 24.4504C53.7308 24.054 52.9374 23.8775 52.1462 23.9462C51.4747 23.9934 50.8126 24.1259 50.1767 24.3402C46.6407 21.952 42.3802 20.7869 38.0798 21.0321C33.7794 21.2773 29.6888 22.9186 26.4653 25.6923C23.2418 28.4659 21.0726 32.2109 20.3063 36.3253C19.54 40.4398 20.2211 44.6848 22.2402 48.3782ZM44.1436 22.9538C39.8062 23.2678 36.3284 26.3626 33.3657 29.0052C31.1426 30.988 29.2267 32.7008 27.6016 32.645C26.8038 32.6178 26.2385 32.3735 25.8736 31.898C25.6683 31.6153 25.5266 31.2938 25.4579 30.9544C25.1471 29.5907 25.6691 28.185 26.6996 27.2102C28.9625 25.0711 31.7679 23.5508 34.8314 22.8033C37.8949 22.0558 41.1075 22.1077 44.1436 22.9538ZM48.5705 24.9783C45.8793 26.2358 43.4371 28.2311 42.9909 28.6046C41.0607 30.1547 39.2362 31.9273 37.4719 33.6417C33.4819 37.5188 29.7076 41.1836 25.8487 40.9969C24.8417 40.9491 24.0649 40.5942 23.4736 39.9119C22.9268 39.2806 22.6059 38.448 22.4222 37.6081C22.0051 35.5888 22.3172 33.4917 23.3059 31.6695C23.5389 31.2293 23.7904 30.8006 24.0603 30.3833C24.1129 31.1586 24.3116 31.9884 24.821 32.6538C25.4302 33.4496 26.3503 33.8739 27.5557 33.915C29.721 33.9901 31.817 32.1125 34.2515 29.9409C38.1664 26.4493 42.5828 22.5157 48.5705 24.9783L48.5705 24.9783ZM35.0438 56.5306C35.4809 56.4751 35.9137 56.3912 36.3392 56.2794C39.8134 55.3575 42.8371 52.6384 45.326 48.1978C47.9626 43.4942 51.1564 40.5753 53.869 40.3898C53.8879 40.3885 53.9067 40.3873 53.9256 40.3863C53.9373 40.3857 53.9489 40.3851 53.9605 40.3846C55.6909 40.3074 57.0262 41.9092 56.6384 43.5477C56.5444 43.9447 56.4354 44.3401 56.3113 44.7337C54.9881 48.9636 52.0479 52.542 48.0936 54.7354C44.1393 56.9288 39.4704 57.5711 35.0438 56.5306ZM25.4609 50.7692C26.6644 51.4521 28.0479 51.7772 29.44 51.7042C29.4617 51.7032 29.4841 51.7022 29.5061 51.701C33.9062 51.4641 38.8794 45.7549 43.69 40.2321C47.4094 35.9625 51.221 31.5909 54.3157 30.3492C54.3157 30.3492 55.9147 29.5838 57.3643 30.3865C57.9224 30.6956 58.2964 31.4597 58.3415 32.2933C58.3798 33.0669 58.134 33.8286 57.648 34.4428C57.4326 33.4607 56.8947 32.3023 56.5256 31.5783C56.4103 31.3466 56.2181 31.1592 55.9799 31.0462C55.7418 30.9332 55.4714 30.9011 55.2122 30.9552C55.062 30.9886 54.9143 31.0322 54.7703 31.0854C54.8515 31.223 54.9332 31.3603 55.0101 31.5011C56.4695 34.1585 57.1874 37.1401 57.0925 40.15C56.1879 39.4178 55.0294 39.0484 53.8536 39.1174C53.8281 39.1188 53.8026 39.1203 53.777 39.1221C50.6164 39.3383 47.0272 42.504 44.1759 47.5903C41.8697 51.7045 39.1249 54.2133 36.0181 55.0471C33.9416 55.5987 31.7277 55.3779 29.8102 54.4279L29.8095 54.4291C28.1637 53.4479 26.6947 52.2116 25.4609 50.7692ZM21.3375 38.6C21.5637 39.3756 21.9485 40.0989 22.4691 40.7269C23.296 41.6831 24.4116 42.201 25.7849 42.2663C30.2269 42.4768 34.1971 38.6218 38.3982 34.5397C40.141 32.8464 41.9433 31.0953 43.8359 29.5753C45.0401 28.5681 47.6201 26.7 49.9766 25.7648C49.9766 25.7648 52.4202 24.6905 53.711 25.5235C54.7757 26.2106 54.7631 27.5063 54.5683 28.459C54.2306 28.02 53.8742 27.5982 53.4991 27.1934C53.198 26.8619 52.8009 26.6261 52.3597 26.5166C51.9185 26.4071 51.4536 26.4291 51.0255 26.5797L51.0116 26.5848C51.9565 27.3896 52.8105 28.2897 53.5593 29.2698C50.2304 30.7575 46.5328 35.0004 42.6904 39.4116C38.0588 44.7284 33.2703 50.2256 29.4361 50.432C29.4189 50.4329 29.4017 50.4338 29.3841 50.4345C23.3916 50.6827 21.6339 42.9513 21.6165 42.8731L21.6147 42.8735C21.3388 41.4658 21.2457 40.0301 21.3375 38.6Z" fill="#0A2244"/>
</svg>
