<svg width="40" height="40" viewBox="0 0 40 40" fill="none" xmlns="http://www.w3.org/2000/svg">
<g opacity="0.8">
<path fill-rule="evenodd" clip-rule="evenodd" d="M20 40C31.0457 40 40 31.0457 40 20C40 8.9543 31.0457 0 20 0C8.9543 0 0 8.9543 0 20C0 31.0457 8.9543 40 20 40ZM10 20.06C10 14.53 14.5 10.04 20 10.04C25.5 10.04 30 14.53 30 20.06C30.0054 22.4456 29.1576 24.7546 27.6099 26.5701C26.0622 28.3855 23.9164 29.5878 21.56 29.96V22.96H23.89L24.34 20.06H21.56V18.18C21.56 17.39 21.95 16.62 23.19 16.62H24.45V14.15C24.45 14.15 23.31 13.96 22.22 13.96C19.93 13.96 18.44 15.34 18.44 17.85V20.06H15.9V22.96H18.44V29.96C13.66 29.21 10 25.06 10 20.06Z" fill="white"/>
</g>
</svg>
