<svg width="40" height="40" viewBox="0 0 40 40" fill="none" xmlns="http://www.w3.org/2000/svg">
<path opacity="0.8" fill-rule="evenodd" clip-rule="evenodd" d="M20 40C31.0457 40 40 31.0457 40 20C40 8.9543 31.0457 0 20 0C8.9543 0 0 8.9543 0 20C0 31.0457 8.9543 40 20 40ZM29 21.8325V29H25.2269V22.3328C25.2269 21.8307 25.0274 21.3491 24.6724 20.9941C24.3173 20.639 23.8357 20.4395 23.3336 20.4395C22.2923 20.4395 21.4538 21.2915 21.4538 22.3328V29H17.6807V17.6807H21.4538V19.1818C22.1029 18.127 23.4418 17.4237 24.5913 17.4237C25.7605 17.4237 26.8819 17.8882 27.7087 18.715C28.5355 19.5418 29 20.6632 29 21.8325ZM14.892 14.892C14.466 15.3181 13.8881 15.5575 13.2855 15.5575C12.0278 15.5575 11 14.5432 11 13.2855C11 12.6793 11.2408 12.098 11.6694 11.6694C12.098 11.2408 12.6793 11 13.2855 11C14.5432 11 15.5575 12.0278 15.5575 13.2855C15.5575 13.8881 15.3181 14.466 14.892 14.892ZM15.1653 17.6807V29H11.4192V17.6807H15.1653Z" fill="white"/>
</svg>
