<svg width="40" height="40" viewBox="0 0 40 40" fill="none" xmlns="http://www.w3.org/2000/svg">
<path opacity="0.8" fill-rule="evenodd" clip-rule="evenodd" d="M20 40C31.0457 40 40 31.0457 40 20C40 8.9543 31.0457 0 20 0C8.9543 0 0 8.9543 0 20C0 31.0457 8.9543 40 20 40ZM28 14.69C28.86 14.58 29.69 14.35 30.46 14C29.88 14.87 29.16 15.63 28.32 16.23C28.33 16.42 28.33 16.6 28.33 16.79C28.33 22.46 24 29 16.12 29C13.7 29 11.44 28.29 9.54 27.07C9.88 27.11 10.22 27.13 10.56 27.13C12.58 27.13 14.43 26.45 15.89 25.29C14 25.26 12.43 24 11.89 22.31C12.15 22.36 12.42 22.39 12.69 22.39C13.08 22.39 13.46 22.34 13.82 22.24C11.86 21.85 10.38 20.11 10.38 18.03V18C10.96 18.3 11.62 18.5 12.33 18.5C11.17 17.75 10.42 16.43 10.42 14.94C10.42 14.16 10.63 13.42 11 12.79C13.11 15.38 16.28 17.09 19.84 17.27C19.77 16.96 19.73 16.63 19.73 16.29C19.73 13.92 21.65 12 24 12C25.26 12 26.37 12.5 27.16 13.36C28.13 13.16 29.05 12.81 29.88 12.31C29.56 13.32 28.88 14.16 28 14.69Z" fill="white"/>
</svg>
